<?xml version="1.0" encoding="UTF-8" standalone="no"?>
<svg
   width="30"
   height="30"
   viewBox="0 0 30 30"
   fill="none"
   version="1.1"
   id="svg23"
   sodipodi:docname="black-bot.svg"
   inkscape:version="1.2.1 (9c6d41e410, 2022-07-14)"
   xmlns:inkscape="http://www.inkscape.org/namespaces/inkscape"
   xmlns:sodipodi="http://sodipodi.sourceforge.net/DTD/sodipodi-0.dtd"
   xmlns:xlink="http://www.w3.org/1999/xlink"
   xmlns="http://www.w3.org/2000/svg"
   xmlns:svg="http://www.w3.org/2000/svg">
  <sodipodi:namedview
     id="namedview25"
     pagecolor="#ffffff"
     bordercolor="#000000"
     borderopacity="0.25"
     inkscape:showpageshadow="2"
     inkscape:pageopacity="0.0"
     inkscape:pagecheckerboard="0"
     inkscape:deskcolor="#d1d1d1"
     showgrid="false"
     inkscape:zoom="16.428448"
     inkscape:cx="17.074042"
     inkscape:cy="20.300153"
     inkscape:window-width="1440"
     inkscape:window-height="878"
     inkscape:window-x="-6"
     inkscape:window-y="-6"
     inkscape:window-maximized="1"
     inkscape:current-layer="g21" />
  <defs
     id="defs4">
    <rect
       id="path_0"
       x="0"
       y="0"
       width="29.999999999999996"
       height="29.999999999999996" />
    <rect
       id="path_1"
       x="0"
       y="0"
       width="20.45454545454545"
       height="20.45454545454545" />
  </defs>
  <g
     opacity="1"
     transform="translate(0 0)  rotate(0 14.999999999999998 14.999999999999998)"
     id="g21">
    <rect
       fill="#E7F8FF"
       opacity="1"
       x="0"
       y="0"
       width="29.999999999999996"
       height="29.999999999999996"
       rx="10"
       id="rect6"
       transform="translate(0 0)  rotate(0 14.999999999999998 14.999999999999998)"
       style="fill:#bbdefb;fill-opacity:1" />
    <g
       inkscape:groupmode="layer"
       id="layer3"
       inkscape:label="扳手"
       style="fill:#cccccc"
       transform="matrix(1.6940024,-1.6764538,1.6764538,1.6940024,-10.798405,20.09323)"
       sodipodi:insensitive="true">
      <path
         id="path1820"
         style="display:inline;fill:#4d4d4d;stroke-width:0.264583"
         inkscape:label="缝"
         d="m 9.3555013,3.223 c 0.108525,0.3088403 0.4019424,0.5291667 0.7487917,0.5291667 h 0.508496 c -0.0068,-1.721e-4 -0.01337,-6.919e-4 -0.02015,-0.00103 -0.01357,-6.8e-4 -0.02694,-0.00175 -0.04031,-0.0031 -0.01337,-0.00135 -0.02662,-0.00317 -0.03979,-0.00517 -0.01316,-0.002 -0.02633,-0.00409 -0.03927,-0.00672 -0.01294,-0.00264 -0.02554,-0.00553 -0.03824,-0.00878 -0.0127,-0.00325 -0.02528,-0.007 -0.03772,-0.010852 -0.01244,-0.00385 -0.02504,-0.00796 -0.03721,-0.012402 -0.01217,-0.00444 -0.02429,-0.00894 -0.03617,-0.013953 -0.01188,-0.00501 -0.02357,-0.01046 -0.03514,-0.01602 -0.01157,-0.00556 -0.02286,-0.01147 -0.03411,-0.01757 -0.01125,-0.00609 -0.02216,-0.0125 -0.03307,-0.01912 -0.01091,-0.00662 -0.02149,-0.013551 -0.03204,-0.020671 -0.01055,-0.00712 -0.02134,-0.014621 -0.03152,-0.022221 -0.01018,-0.0076 -0.02017,-0.015174 -0.02997,-0.023254 -0.0098,-0.00808 -0.01902,-0.016275 -0.02842,-0.024805 -0.0094,-0.00853 -0.01891,-0.017385 -0.0279,-0.026355 -0.009,-0.00897 -0.01734,-0.017999 -0.02584,-0.027388 -0.0085,-0.00939 -0.01722,-0.019149 -0.02532,-0.028939 -0.0081,-0.00979 -0.01565,-0.019791 -0.023254,-0.029972 -0.0076,-0.010182 -0.015121,-0.020452 -0.022221,-0.031006 -0.00712,-0.010553 -0.014071,-0.02113 -0.02067,-0.032039 -0.00662,-0.01091 -0.01302,-0.022341 -0.01912,-0.03359 -0.0061,-0.011248 -0.01197,-0.022534 -0.01757,-0.034106 -0.0056,-0.011572 -0.010503,-0.023262 -0.015503,-0.03514 -0.00497,-0.011879 -0.010069,-0.024005 -0.014469,-0.036174 -0.00106,-0.00293 -0.00212,-0.00585 -0.0031,-0.00878 z m 1.8536337,0 A 1.9840835,1.9840835 0 0 1 11.150745,3.313434 1.9840835,1.9840835 0 0 0 11.209135,3.223 Z m -0.07596,0.1157552 a 1.9840835,1.9840835 0 0 1 -0.04083,0.055811 1.9840835,1.9840835 0 0 0 0.0186,-0.024288 1.9840835,1.9840835 0 0 0 0.02222,-0.031523 z m -0.0677,0.09095 a 1.9840835,1.9840835 0 0 1 -0.06511,0.078548 1.9840835,1.9840835 0 0 0 0.06511,-0.078548 z M 10.89856,3.6147074 a 1.9840835,1.9840835 0 0 1 -0.04237,0.040824 1.9840835,1.9840835 0 0 0 0.0217,-0.019637 1.9840835,1.9840835 0 0 0 0.02067,-0.021187 z m -0.09612,0.135909 -0.04857,0.00155 c 0.01626,0 0.03256,-5.957e-4 0.04857,-0.00155 z" />
      <path
         id="rect1510-5"
         style="display:inline;fill:#4d4d4d;stroke-width:0.264583"
         inkscape:label="厚度左"
         d="M 8.2522095,0.35605062 A 1.9840835,1.9840835 0 0 0 7.7230428,0.67024333 V 2.4287923 c 0,0.041226 0.0033,0.081943 0.0093,0.1214396 0.006,0.039497 0.014793,0.077911 0.026355,0.1152385 0.00385,0.012442 0.00796,0.024521 0.012402,0.03669 0.00888,0.024338 0.018853,0.04817 0.029972,0.071314 0.016679,0.034715 0.036006,0.068075 0.057361,0.099735 0.014236,0.021107 0.029325,0.041392 0.045475,0.060978 0.016151,0.019586 0.033226,0.038393 0.05116,0.056327 0.017933,0.017934 0.036741,0.035009 0.056327,0.05116 0.019586,0.01615 0.039871,0.031239 0.060978,0.045475 0.1266431,0.085418 0.2795165,0.1353922 0.4444173,0.1353922 h 0.5291667 c -0.4397363,0 -0.79375,-0.3540137 -0.79375,-0.79375 z m 2.2370725,0.54880371 v 0.00155 a 1.9840835,1.9840835 0 0 1 0.0155,0.01757 1.9840835,1.9840835 0 0 0 -0.0155,-0.01912 z m 0.06563,0.0821655 a 1.9840835,1.9840835 0 0 1 0.02997,0.039274 1.9840835,1.9840835 0 0 0 -0.02997,-0.039274 z m 0.08217,0.11472167 a 1.9840835,1.9840835 0 0 1 0.02429,0.035657 1.9840835,1.9840835 0 0 0 -0.02429,-0.035657 z m 0.150378,0.269751 a 1.9840835,1.9840835 0 0 1 0.0186,0.042892 1.9840835,1.9840835 0 0 0 -0.0186,-0.042892 z m 0.04909,0.1173055 a 1.9840835,1.9840835 0 0 1 0.02067,0.057361 1.9840835,1.9840835 0 0 0 -0.02067,-0.057361 z m 0.04547,0.1328084 a 1.9840835,1.9840835 0 0 1 0.01292,0.044959 1.9840835,1.9840835 0 0 0 -0.01292,-0.044959 z m 0.03462,0.1297079 a 1.9840835,1.9840835 0 0 1 0.01085,0.049093 1.9840835,1.9840835 0 0 0 -0.01085,-0.049093 z m 0.02532,0.1307414 a 1.9840835,1.9840835 0 0 1 0.0078,0.050126 1.9840835,1.9840835 0 0 0 -0.0078,-0.050126 z m 0.0217,0.4413167 a 1.9840835,1.9840835 0 0 1 -0.0067,0.073897 1.9840835,1.9840835 0 0 0 0.0067,-0.073897 z m -0.01189,0.118339 a 1.9840835,1.9840835 0 0 1 -0.01395,0.091984 1.9840835,1.9840835 0 0 0 0.01395,-0.091984 z M 10.9373,2.5367964 A 1.9840835,1.9840835 0 0 1 10.808626,2.967261 1.9840835,1.9840835 0 0 1 10.679951,3.2225426 1.9840835,1.9840835 0 0 1 10.546626,3.416846 1.9840835,1.9840835 0 0 0 10.9373,2.5367964 Z M 10.546626,3.416846 a 1.9840835,1.9840835 0 0 1 -0.06511,0.078548 1.9840835,1.9840835 0 0 0 0.06511,-0.078548 z M 10.306348,3.2184082 c -0.01338,0.00135 -0.02674,0.00242 -0.04031,0.0031 0.01357,-6.8e-4 0.02694,-0.00175 0.04031,-0.0031 z m 0.245979,0 c 0.01338,0.00135 0.02674,0.00242 0.04031,0.0031 -0.01357,-6.8e-4 -0.02694,-0.00175 -0.04031,-0.0031 z m -0.08837,0.2971395 a 1.9840835,1.9840835 0 0 1 -0.05788,0.062012 1.9840835,1.9840835 0 0 0 0.05788,-0.062012 z m -0.101803,0.1059367 a 1.9840835,1.9840835 0 0 1 -0.04858,0.046509 1.9840835,1.9840835 0 0 0 0.04858,-0.046509 z M 10.21436,3.7522257 a 1.9840835,1.9840835 0 0 1 -0.03772,0.027389 1.9840835,1.9840835 0 0 0 0.03772,-0.027389 z m -0.167949,0.1183391 a 1.9840835,1.9840835 0 0 1 -0.056844,0.034106 1.9840835,1.9840835 0 0 0 0.056844,-0.034106 z M 9.8608968,3.9739176 a 1.9840835,1.9840835 0 0 1 -0.05426,0.026872 1.9840835,1.9840835 0 0 0 0.05426,-0.026872 z" />
      <path
         id="path2263"
         style="display:inline;fill:#4d4d4d;stroke-width:0.262205"
         inkscape:label="厚度右"
         d="m 10.215392,3.751709 a 1.9840835,1.9840835 0 0 1 -0.137976,0.1002523 1.9840835,1.9840835 0 0 1 -0.1462442,0.08785 1.9840835,1.9840835 0 0 1 -0.153479,0.074931 1.9840835,1.9840835 0 0 1 -0.1591635,0.061495 v 7.7767857 c 0,0.0092 -6.502e-4,0.01796 -0.00155,0.02687 -9e-4,0.0089 -0.00186,0.01773 -0.00362,0.02636 -0.00176,0.0086 -0.00415,0.01754 -0.00672,0.02584 -0.00257,0.0083 -0.00545,0.01637 -0.00878,0.02429 -0.00334,0.0079 -0.00731,0.01524 -0.011369,0.02274 -0.00406,0.0075 -0.00817,0.01519 -0.012919,0.02222 -0.00475,0.007 -0.010119,0.01363 -0.015503,0.02015 -0.00538,0.0065 -0.011075,0.01263 -0.017053,0.0186 -0.00598,0.006 -0.012075,0.01167 -0.018603,0.01705 -0.00653,0.0054 -0.013118,0.01076 -0.020154,0.0155 -0.00704,0.0047 -0.014722,0.0089 -0.022221,0.01292 -0.0075,0.0041 -0.014819,0.008 -0.022738,0.01137 -0.00792,0.0033 -0.015993,0.0062 -0.024288,0.0088 -0.0083,0.0026 -0.017211,0.005 -0.025838,0.0067 -0.00863,0.0018 -0.017439,0.0027 -0.026355,0.0036 -0.00892,9e-4 -0.017711,0.0016 -0.026872,0.0016 H 9.883113 c 0.146579,0 0.264583,-0.115977 0.264583,-0.259933 V 4.2193807 a 1.9840835,1.9485742 0 0 0 0.787574,-0.487288 m 0.529167,0 A 1.9840835,1.9485742 0 0 0 12.026656,2.3745321 1.9840835,1.9485742 0 0 0 10.506852,0.48162435 v 0 a 1.9840835,1.9840835 0 0 1 0.159164,0.10128581 1.9840835,1.9840835 0 0 1 0.163814,0.13022461 1.9840835,1.9840835 0 0 1 0.149345,0.14727783 1.9840835,1.9840835 0 0 1 0.132809,0.1617472 1.9840835,1.9840835 0 0 1 0.114721,0.1751831 1.9840835,1.9840835 0 0 1 0.09612,0.186552 1.9840835,1.9840835 0 0 1 0.07597,0.1953369 1.9840835,1.9840835 0 0 1 0.05426,0.2020548 1.9840835,1.9840835 0 0 1 0.03359,0.2067058 1.9840835,1.9840835 0 0 1 0.01085,0.2092895 1.9840835,1.9840835 0 0 1 -0.01085,0.197404 1.9840835,1.9840835 0 0 1 -0.03049,0.1953369 1.9840835,1.9840835 0 0 1 -0.04961,0.1917196 1.9840835,1.9840835 0 0 1 -0.06873,0.1855183 1.9840835,1.9840835 0 0 1 -0.05995,0.1297079 1.9840835,1.9840835 0 0 1 -0.06873,0.1255737 1.9840835,1.9840835 0 0 1 -0.09819,0.1472778 1.9840835,1.9840835 0 0 1 -0.110588,0.1379761 1.9840835,1.9840835 0 0 1 -0.122473,0.1276408 1.9840835,1.9840835 0 0 1 -0.133325,0.116272" />
      <path
         id="path1871"
         style="display:inline;fill:#999999;stroke-width:0.264583"
         inkscape:label="主要"
         d="M 7.7230428,0.66714274 A 1.9840835,1.9840835 0 0 0 7.0000895,2.1972819 1.9840835,1.9840835 0 0 0 8.5002563,4.1191284 v 7.7338946 c 0,0.146579 0.1180045,0.264584 0.2645834,0.264584 H 9.353951 c 0.146579,0 0.2645833,-0.118005 0.2645833,-0.264584 V 4.076237 A 1.9840835,1.9840835 0 0 0 10.215397,3.751709 h -0.111104 c -0.01374,0 -0.02726,-3.503e-4 -0.04082,-0.00103 -0.01357,-6.833e-4 -0.02693,-0.00175 -0.04031,-0.0031 C 10.009793,3.746229 9.996538,3.744409 9.983372,3.742409 9.970206,3.740409 9.957039,3.738329 9.944098,3.735689 9.931157,3.733059 9.918557,3.730159 9.905857,3.726899 9.893157,3.723649 9.880576,3.719899 9.868133,3.716047 9.855691,3.712197 9.843095,3.708087 9.830926,3.703645 9.818757,3.699205 9.806631,3.694695 9.794752,3.689692 9.782874,3.684682 9.771184,3.679232 9.759612,3.673672 9.74804,3.668112 9.736754,3.662198 9.725506,3.656102 9.714257,3.650002 9.703342,3.643597 9.692433,3.636982 9.681524,3.630362 9.670947,3.62343 9.660394,3.616311 9.64984,3.609191 9.639053,3.601695 9.628871,3.59409 9.61869,3.58649 9.608692,3.578911 9.598899,3.570836 9.589109,3.562756 9.579865,3.554561 9.570477,3.546031 9.561087,3.537501 9.551539,3.528643 9.542572,3.519676 9.533602,3.510706 9.525263,3.501676 9.516734,3.492288 9.508204,3.482898 9.499488,3.473142 9.491412,3.463349 9.483332,3.453559 9.475762,3.443558 9.468158,3.433377 9.460558,3.423196 9.453055,3.412925 9.445937,3.402371 9.438817,3.391817 9.431881,3.381241 9.425266,3.370332 9.418646,3.359423 9.412241,3.347991 9.406146,3.336742 9.400046,3.325493 9.394136,3.314207 9.388576,3.302636 9.383016,3.291064 9.37808,3.279374 9.373073,3.267496 9.368063,3.255618 9.363042,3.243491 9.358604,3.231322 9.354994,3.221412 9.352014,3.211441 9.348784,3.20135 9.290215,3.215033 9.2292219,3.222537 9.1663662,3.222537 H 8.5167928 c -0.1649012,0 -0.317774,-0.049974 -0.4444173,-0.1353922 -0.021107,-0.014236 -0.041392,-0.029325 -0.060978,-0.045475 -0.019586,-0.016151 -0.038394,-0.033226 -0.056327,-0.05116 -0.017934,-0.017934 -0.035009,-0.036741 -0.05116,-0.056327 -0.01615,-0.019586 -0.031239,-0.039871 -0.045475,-0.060978 -0.021355,-0.031661 -0.040682,-0.06502 -0.057361,-0.099735 -0.011119,-0.023143 -0.021095,-0.046976 -0.029972,-0.071314 -0.00444,-0.012169 -0.00855,-0.024248 -0.012402,-0.03669 -0.011562,-0.037327 -0.020353,-0.075741 -0.026355,-0.1152385 -0.006,-0.039497 -0.0093,-0.080214 -0.0093,-0.1214396 z M 9.8779503,3.201355 c 0.0032,0.010092 0.0062,0.020063 0.0098,0.029972 0.0044,0.012169 0.0095,0.024295 0.01447,0.036174 0.005,0.011878 0.0099,0.023568 0.0155,0.03514 0.0056,0.011572 0.01147,0.022858 0.01757,0.034106 0.0061,0.011249 0.0125,0.02268 0.01912,0.03359 0.0066,0.010909 0.01355,0.021486 0.02067,0.032039 0.0071,0.010554 0.01462,0.020824 0.02222,0.031006 0.0076,0.010181 0.01518,0.020179 0.02325,0.029972 0.0081,0.00979 0.01679,0.019551 0.02532,0.028939 0.0085,0.00939 0.01687,0.018422 0.02584,0.027388 0.009,0.00897 0.01852,0.017826 0.02791,0.026355 0.0094,0.00853 0.01863,0.016729 0.02842,0.024805 0.0098,0.00808 0.01979,0.01565 0.02997,0.023254 0.01018,0.0076 0.02097,0.015103 0.03152,0.022221 0.01055,0.00712 0.02113,0.014056 0.03204,0.020671 0.01091,0.00662 0.02182,0.013025 0.03307,0.01912 0.01125,0.0061 0.02254,0.01201 0.03411,0.01757 0.01157,0.00556 0.02326,0.011012 0.03514,0.01602 0.01188,0.00501 0.024,0.00951 0.03617,0.013953 0.01217,0.00444 0.02477,0.00855 0.03721,0.012402 0.01244,0.00385 0.02502,0.0076 0.03772,0.010852 0.0127,0.00325 0.0253,0.00615 0.03824,0.00879 0.01294,0.00263 0.02611,0.00472 0.03927,0.00672 0.01317,0.002 0.02642,0.00382 0.03979,0.00517 0.01337,0.00135 0.02674,0.00242 0.04031,0.0031 0.01357,6.832e-4 0.02708,0.00103 0.04082,0.00103 h 0.111104 a 1.9840835,1.9840835 0 0 0 0.464599,-0.5291667 h -0.04651 c -0.01374,0 -0.02726,-3.503e-4 -0.04082,-0.00103 -0.01357,-6.833e-4 -0.02693,-0.00175 -0.04031,-0.0031 -0.01337,-0.00135 -0.02662,-0.00317 -0.03979,-0.00517 -0.01317,-0.002 -0.02633,-0.00408 -0.03927,-0.00672 -0.01294,-0.00263 -0.02554,-0.00553 -0.03824,-0.00879 -0.0019,-4.881e-4 -0.0038,-0.00105 -0.0057,-0.00155 -0.0019,5.019e-4 -0.0038,0.00106 -0.0057,0.00155 -0.0127,0.00325 -0.0253,0.00615 -0.03824,0.00879 -0.01294,0.00263 -0.02611,0.00472 -0.03927,0.00672 -0.01317,0.002 -0.02642,0.00382 -0.03979,0.00517 -0.01337,0.00135 -0.02674,0.00242 -0.04031,0.0031 -0.01357,6.832e-4 -0.0276,0.00103 -0.04134,0.00103 h -0.649551 c -0.01374,0 -0.02726,-3.503e-4 -0.04082,-0.00103 -0.01357,-6.833e-4 -0.02693,-0.00175 -0.04031,-0.0031 -0.01337,-0.00135 -0.02663,-0.00317 -0.03979,-0.00517 -0.01317,-0.002 -0.02633,-0.00408 -0.03927,-0.00672 -0.01294,-0.00263 -0.02554,-0.00553 -0.03824,-0.00879 -0.0019,-4.881e-4 -0.0038,-0.00105 -0.0057,-0.00155 -0.0073,0.00193 -0.01484,0.00344 -0.02222,0.00517 z m 0.02222,-0.00517 c 0.0019,5.019e-4 0.0038,0.00106 0.0057,0.00155 0.0127,0.00325 0.0253,0.00615 0.03824,0.00879 0.01294,0.00263 0.02611,0.00472 0.03927,0.00672 0.01317,0.002 0.02642,0.00382 0.03979,0.00517 0.01337,0.00135 0.02674,0.00242 0.04031,0.0031 0.01357,6.832e-4 0.02708,0.00103 0.04082,0.00103 h 0.649582 c 0.01374,0 0.02778,-3.503e-4 0.04134,-0.00103 0.01357,-6.833e-4 0.02693,-0.00175 0.04031,-0.0031 0.01337,-0.00135 0.02663,-0.00317 0.03979,-0.00517 0.01316,-0.002 0.02633,-0.00408 0.03927,-0.00672 0.01294,-0.00263 0.02554,-0.00553 0.03824,-0.00879 0.0019,-4.881e-4 0.0038,-0.00105 0.0057,-0.00155 -0.01076,-0.00284 -0.02146,-0.00603 -0.03204,-0.0093 -0.01244,-0.00385 -0.02504,-0.00796 -0.03721,-0.012402 -0.01217,-0.00444 -0.0243,-0.00895 -0.03617,-0.013953 -0.01188,-0.00501 -0.02357,-0.01046 -0.03514,-0.01602 -0.01157,-0.00556 -0.02286,-0.011474 -0.03411,-0.01757 -0.01125,-0.0061 -0.02216,-0.012505 -0.03307,-0.01912 -0.01091,-0.00662 -0.02149,-0.013552 -0.03204,-0.020671 -0.01055,-0.00712 -0.02134,-0.014616 -0.03152,-0.022221 -0.01018,-0.0076 -0.02018,-0.015179 -0.02997,-0.023254 -0.0098,-0.00808 -0.01903,-0.016275 -0.02842,-0.024805 -0.0094,-0.00853 -0.01894,-0.017388 -0.0279,-0.026355 -0.009,-0.00897 -0.01731,-0.018 -0.02584,-0.027389 -0.0085,-0.00939 -0.01725,-0.019146 -0.02532,-0.028939 -0.0081,-0.00979 -0.01565,-0.019791 -0.02325,-0.029972 -0.0076,-0.010181 -0.0151,-0.020452 -0.02222,-0.031006 -0.0071,-0.010554 -0.01405,-0.02113 -0.02067,-0.032039 -0.0066,-0.010909 -0.01303,-0.022341 -0.01912,-0.03359 -0.0061,-0.011249 -0.01201,-0.022535 -0.01757,-0.034107 -0.0056,-0.011572 -0.0105,-0.023262 -0.0155,-0.03514 -7.15e-4,-0.0017 -0.0014,-0.00346 -0.0021,-0.00517 -0.0056,0.013632 -0.01173,0.027075 -0.01809,0.040308 -0.0056,0.011572 -0.01096,0.022858 -0.01705,0.034107 -0.0061,0.011249 -0.0125,0.02268 -0.01912,0.03359 -0.0066,0.010909 -0.01355,0.021486 -0.02067,0.032039 -0.0071,0.010554 -0.01462,0.020824 -0.02222,0.031006 -0.0076,0.010182 -0.01518,0.020179 -0.02325,0.029972 -0.0081,0.00979 -0.01679,0.019551 -0.02532,0.028939 -0.0085,0.00939 -0.01687,0.018422 -0.02584,0.027389 -8.8e-5,8.78e-5 -4.29e-4,-8.77e-5 -5.17e-4,0 -0.09729,0.09729 -0.219699,0.1693926 -0.35706,0.2056722 z M 10.257254,2.9905151 c 8.8e-5,-8.77e-5 4.29e-4,8.78e-5 5.17e-4,0 0.009,-0.00897 0.01731,-0.018 0.02584,-0.027389 -0.0085,0.00939 -0.01739,0.018422 -0.02635,0.027389 z m 0.02635,-0.027389 c 0.0085,-0.00939 0.01725,-0.019146 0.02532,-0.028939 0.0081,-0.00979 0.01565,-0.019791 0.02325,-0.029972 -0.01521,0.020363 -0.03152,0.040135 -0.04858,0.058911 z m 0.04858,-0.058911 c 0.0076,-0.010181 0.0151,-0.020452 0.02222,-0.031006 0.0071,-0.010554 0.01405,-0.02113 0.02067,-0.032039 0.0066,-0.010909 0.01303,-0.022341 0.01912,-0.03359 0.0061,-0.011249 0.01149,-0.022535 0.01705,-0.034107 -0.02224,0.046287 -0.04865,0.090015 -0.07906,0.130742 z m 0.09715,-0.171049 c 0.0042,-0.010218 0.0086,-0.020576 0.0124,-0.031006 0.0044,-0.012169 0.0086,-0.024248 0.0124,-0.03669 0.0039,-0.012442 0.0071,-0.025024 0.01034,-0.037724 -0.0093,0.036277 -0.02107,0.071368 -0.03514,0.10542 z m 0,0 c 7.04e-4,0.0017 0.0014,0.00347 0.0021,0.00517 0.005,0.011878 0.0099,0.023568 0.0155,0.03514 0.0056,0.011572 0.01147,0.022858 0.01757,0.034107 0.0061,0.011249 0.01251,0.02268 0.01912,0.03359 0.0066,0.010909 0.01355,0.021486 0.02067,0.032039 0.0071,0.010554 0.01462,0.020824 0.02222,0.031006 0.0076,0.010182 0.01518,0.020179 0.02325,0.029972 0.0081,0.00979 0.01679,0.019551 0.02532,0.028939 0.0085,0.00939 0.01687,0.018422 0.02584,0.027389 0.009,0.00897 0.01852,0.017826 0.0279,0.026355 0.0094,0.00853 0.01863,0.016729 0.02842,0.024805 0.0098,0.00808 0.01979,0.015649 0.02997,0.023254 0.01018,0.0076 0.02097,0.015103 0.03152,0.022221 0.01055,0.00712 0.02113,0.014055 0.03204,0.020671 0.01091,0.00662 0.02182,0.013025 0.03307,0.01912 0.01125,0.0061 0.02253,0.01201 0.03411,0.01757 0.01157,0.00556 0.02326,0.011012 0.03514,0.01602 0.01188,0.00501 0.024,0.00951 0.03617,0.013953 0.01217,0.00444 0.02476,0.00855 0.03721,0.012402 0.01058,0.00328 0.02128,0.00646 0.03204,0.0093 0.01076,-0.00284 0.02146,-0.00603 0.03204,-0.0093 0.01244,-0.00385 0.02504,-0.00796 0.03721,-0.012402 0.01217,-0.00444 0.02378,-0.00895 0.03566,-0.013953 0.01188,-0.00501 0.02408,-0.01046 0.03566,-0.01602 0.01157,-0.00556 0.02286,-0.011474 0.03411,-0.01757 0.01125,-0.0061 0.02216,-0.012505 0.03307,-0.01912 0.01091,-0.00662 0.02149,-0.013552 0.03204,-0.020671 0.01055,-0.00712 0.02134,-0.014616 0.03152,-0.022221 0.01018,-0.0076 0.02018,-0.015179 0.02997,-0.023254 0.0098,-0.00808 0.01903,-0.016275 0.02842,-0.024805 0.0094,-0.00853 0.01894,-0.017388 0.0279,-0.026355 0.0076,-0.00758 0.01444,-0.015378 0.02171,-0.023254 A 1.9840835,1.9840835 0 0 0 11.49749,2.1972819 1.9840835,1.9840835 0 0 0 10.489282,0.47025553 V 2.4287923 c 0,0.013742 -3.5e-4,0.027258 -10e-4,0.040824 -6.83e-4,0.013566 -0.0012,0.026933 -0.0026,0.040308 -0.0013,0.013374 -0.0032,0.026625 -0.0052,0.039791 -0.002,0.013166 -0.0046,0.026333 -0.0072,0.039274 -0.0026,0.012941 -0.0055,0.026057 -0.0088,0.038757 -0.0032,0.0127 -0.0065,0.025281 -0.01033,0.037724 -0.0038,0.012442 -0.008,0.024522 -0.0124,0.03669 -0.0038,0.01043 -0.0082,0.020788 -0.0124,0.031006 z m 0.04392,-0.1441772 c 0.0026,-0.012941 0.0052,-0.026108 0.0072,-0.039274 0.002,-0.013166 0.0038,-0.026417 0.0052,-0.039791 0.0013,-0.013374 0.0019,-0.026741 0.0026,-0.040308 -0.0021,0.040698 -0.0071,0.080549 -0.01499,0.1193726 z m 0.864548,0.3782714 c -0.0073,0.00788 -0.01413,0.015679 -0.02171,0.023254 -0.009,0.00897 -0.01852,0.017826 -0.0279,0.026355 -0.0094,0.00853 -0.01863,0.016729 -0.02842,0.024805 -0.0098,0.00808 -0.01979,0.015649 -0.02997,0.023254 -0.01018,0.0076 -0.02097,0.015103 -0.03152,0.022221 -0.01055,0.00712 -0.02113,0.014055 -0.03204,0.020671 -0.01091,0.00662 -0.02182,0.013025 -0.03307,0.01912 -0.01125,0.0061 -0.02253,0.01201 -0.03411,0.01757 -0.01157,0.00556 -0.02378,0.011012 -0.03566,0.01602 -0.01188,0.00501 -0.02349,0.00951 -0.03566,0.013953 -0.01217,0.00444 -0.02476,0.00855 -0.03721,0.012402 -0.01058,0.00328 -0.02128,0.00646 -0.03204,0.0093 0.0019,5.019e-4 0.0038,0.00106 0.0057,0.00155 0.0127,0.00325 0.0253,0.00615 0.03824,0.00879 0.01294,0.00263 0.02611,0.00472 0.03927,0.00672 0.01317,0.002 0.02642,0.00382 0.03979,0.00517 0.01337,0.00135 0.02674,0.00242 0.04031,0.0031 0.01357,6.832e-4 0.02708,0.00103 0.04082,0.00103 h 0.04651 a 1.9840835,1.9840835 0 0 0 0.128675,-0.2552816 z" />
      <rect
         style="fill:#808080;stroke-width:0.132738"
         id="rect2181"
         width="0.71906394"
         height="3.9681671"
         x="8.6561661"
         y="7.740068"
         rx="0.13229167"
         ry="0.53274208"
         inkscape:label="条厚度" />
      <rect
         style="display:inline;fill:#b3b3b3;stroke-width:0.119819"
         id="rect2184"
         width="0.58590394"
         height="3.9681671"
         x="8.7893257"
         y="7.740068"
         rx="0.10779322"
         ry="0.53274208"
         inkscape:label="条" />
    </g>
    <mask
       id="bg-mask-0"
       fill="white">
      <use
         xlink:href="#path_0"
         id="use8" />
    </mask>
    <g
       mask="url(#bg-mask-0)"
       id="g19" />
    <g
       inkscape:groupmode="layer"
       id="layer2"
       inkscape:label="螺丝刀"
       transform="matrix(1.5743269,1.5229358,-1.5229358,1.5743269,19.905129,1.2857598)"
       sodipodi:insensitive="true">
      <path
         id="path865"
         style="fill:#4d4d4d;stroke-width:0.264583"
         inkscape:label="刀内侧"
         transform="matrix(0.27064227,0,0,0.44913373,2.1804026,0.31410905)"
         d="M 5.3263988,2.2370875 3.8749551,4.7510619 H 0.97206748 l -1.4514438,-2.5139744 1.4514438,-2.5139744 H 3.8749551 Z M 0.89826585,1.5538952 H 3.9487569 V 15.073465 H 0.89826585 Z" />
      <path
         id="path865-6"
         style="fill:#999999;stroke-width:0.264583"
         inkscape:label="刀外侧"
         transform="matrix(0.23394501,0,0,0.44913373,2.1628108,0.31410905)"
         d="M 5.3263988,2.2370875 3.8749551,4.7510619 H 0.97206748 l -1.4514438,-2.5139744 1.4514438,-2.5139744 H 3.8749551 Z M 0.89826579,1.5538952 H 3.9487566 V 15.073465 H 0.89826579 Z" />
      <path
         id="rect406"
         style="fill:#2b1100;stroke-width:0.305256"
         inkscape:label="条右"
         d="M 4.1614194,8.2692627 H 3.9262916 c -0.00229,0 -0.00497,5.82e-5 -0.00723,5.168e-4 -0.00226,4.585e-4 -0.00449,0.00116 -0.00672,0.00207 -0.00223,9.062e-4 -0.00401,0.00227 -0.0062,0.00362 -0.00219,0.00134 -0.00456,0.00288 -0.00672,0.00465 -0.00216,0.00177 -0.00408,0.0035 -0.0062,0.00568 -0.00212,0.00218 -0.00464,0.00465 -0.00672,0.00723 -0.00415,0.00517 -0.00793,0.011365 -0.011886,0.018087 -0.00396,0.00672 -0.00814,0.014039 -0.011886,0.022221 -0.00375,0.00818 -0.00733,0.017317 -0.010852,0.026872 -0.00352,0.00955 -0.00655,0.019649 -0.00982,0.030489 -0.00326,0.01084 -0.00631,0.02207 -0.0093,0.034107 -0.00299,0.012037 -0.00609,0.024578 -0.00879,0.037724 -0.00269,0.013146 -0.00538,0.027175 -0.00775,0.041341 -0.00237,0.014167 -0.00417,0.028825 -0.0062,0.043925 -0.00203,0.0151 -0.00402,0.030564 -0.00568,0.046509 -0.00167,0.015945 -0.00337,0.03239 -0.00465,0.049093 -0.00128,0.016702 -0.00222,0.033788 -0.0031,0.05116 -8.782e-4,0.017371 -0.00162,0.034757 -0.00207,0.05271 C 3.7940667,8.7652224 3.794,8.7836005 3.794,8.8020467 v 2.9026653 c 0,0.01845 6.67e-5,0.03682 5.167e-4,0.05478 4.501e-4,0.01795 0.00119,0.03534 0.00207,0.05271 8.782e-4,0.01737 0.00182,0.03446 0.0031,0.05116 0.00128,0.0167 0.00298,0.03315 0.00465,0.04909 0.00167,0.01594 0.00365,0.03141 0.00568,0.04651 0.00203,0.0151 0.00383,0.02976 0.0062,0.04392 0.00237,0.01417 0.00506,0.02768 0.00775,0.04082 0.00269,0.01315 0.0058,0.0262 0.00879,0.03824 0.00299,0.01204 0.00604,0.02327 0.0093,0.03411 0.00326,0.01084 0.0063,0.02093 0.00982,0.03049 0.00149,0.004 0.00312,0.0076 0.00465,0.01137 0.180224,-0.112069 0.3048909,-0.355025 0.3048909,-0.638204 z" />
      <path
         id="path936"
         style="fill:#aa4400;stroke-width:0.305256"
         inkscape:label="条最左"
         d="m 1.6148341,12.049131 c 4.039e-4,-0.0019 6.362e-4,-0.0037 0.00103,-0.0057 0.00269,-0.01315 0.00538,-0.02666 0.00775,-0.04082 0.00237,-0.01417 0.00469,-0.02882 0.00672,-0.04392 0.00203,-0.0151 0.00402,-0.03056 0.00568,-0.04651 0.00167,-0.01595 0.00285,-0.03239 0.00413,-0.04909 0.00128,-0.0167 0.00222,-0.03379 0.0031,-0.05116 8.782e-4,-0.01737 0.00162,-0.03476 0.00207,-0.05271 4.5e-4,-0.01795 0.00103,-0.03633 0.00103,-0.05478 V 8.801784 c 0,-0.018446 -5.835e-4,-0.036824 -0.00103,-0.054777 -4.501e-4,-0.017953 -0.00119,-0.035339 -0.00207,-0.05271 -8.782e-4,-0.017371 -0.00182,-0.034458 -0.0031,-0.05116 -0.00128,-0.016702 -0.00246,-0.033148 -0.00413,-0.049093 -0.00167,-0.015945 -0.00365,-0.031409 -0.00568,-0.046509 -0.00203,-0.0151 -0.00435,-0.029758 -0.00672,-0.043925 -0.00237,-0.014167 -0.00506,-0.028196 -0.00775,-0.041341 -0.00269,-0.013146 -0.00528,-0.025687 -0.00827,-0.037724 -0.00299,-0.012037 -0.00604,-0.023267 -0.0093,-0.034107 -0.00326,-0.01084 -0.00682,-0.020934 -0.010335,-0.030489 -0.00352,-0.00955 -0.0071,-0.018689 -0.010852,-0.026872 -0.00375,-0.00818 -0.00793,-0.015499 -0.011886,-0.022221 -0.00396,-0.00672 -0.00774,-0.012914 -0.011886,-0.018087 -0.00207,-0.00259 -0.00408,-0.00505 -0.0062,-0.00723 -0.00212,-0.00218 -0.00456,-0.00392 -0.00672,-0.00568 -0.00216,-0.00177 -0.00401,-0.00331 -0.0062,-0.00465 -0.00219,-0.00134 -0.00449,-0.00271 -0.00672,-0.00362 -0.00223,-9.061e-4 -0.00446,-0.00161 -0.00672,-0.00207 C 1.5185219,8.2690582 1.5163553,8.269 1.514065,8.269 H 1.435 v 3.250447 c 0,0.21157 0.069585,0.400787 0.1798341,0.529684 z" />
      <path
         id="path1040"
         style="fill:#d45500;stroke-width:0.305256"
         inkscape:label="手把"
         d="m 1.9140951,6.9773519 c -0.2931579,0 -0.5291667,0.3141331 -0.5291667,0.7043498 v 0.587561 h 0.079065 c 0.00229,0 0.00446,5.82e-5 0.00672,5.168e-4 0.00226,4.585e-4 0.00449,0.00116 0.00672,0.00207 0.00223,9.062e-4 0.00452,0.00227 0.00672,0.00362 0.00219,0.00134 0.00404,0.00288 0.0062,0.00465 0.00216,0.00177 0.0046,0.0035 0.00672,0.00568 0.00212,0.00218 0.00413,0.00465 0.0062,0.00723 0.00415,0.00517 0.00793,0.011365 0.011886,0.018087 0.00396,0.00672 0.00814,0.014039 0.011886,0.022221 0.00375,0.00818 0.00733,0.017317 0.010852,0.026872 0.00352,0.00955 0.00707,0.019649 0.010335,0.030489 0.00326,0.01084 0.00631,0.02207 0.0093,0.034107 0.00299,0.012037 0.00558,0.024578 0.00827,0.037724 0.00269,0.013146 0.00538,0.027175 0.00775,0.041341 0.00237,0.014167 0.00469,0.028825 0.00672,0.043925 0.00203,0.0151 0.00402,0.030564 0.00568,0.046509 0.00167,0.015945 0.00285,0.03239 0.00413,0.049093 0.00128,0.016702 0.00222,0.033788 0.0031,0.05116 8.782e-4,0.017371 0.00162,0.034757 0.00207,0.05271 4.5e-4,0.017953 0.00103,0.036331 0.00103,0.054777 V 11.70471 c 0,0.01845 -5.835e-4,0.03682 -0.00103,0.05478 -4.501e-4,0.01795 -0.00119,0.03534 -0.00207,0.05271 -8.782e-4,0.01737 -0.00182,0.03446 -0.0031,0.05116 -0.00128,0.0167 -0.00246,0.03315 -0.00413,0.04909 -0.00167,0.01594 -0.00365,0.03141 -0.00568,0.04651 -0.00203,0.0151 -0.00435,0.02976 -0.00672,0.04392 -0.00237,0.01417 -0.00506,0.02768 -0.00775,0.04082 -3.973e-4,0.0019 -6.296e-4,0.0038 -0.00103,0.0057 0.093093,0.108839 0.2151205,0.174666 0.3493327,0.174666 h 1.8179768 c 0.080415,0 0.1561528,-0.02379 0.2242758,-0.06615 -0.00153,-0.0038 -0.00316,-0.0073 -0.00465,-0.01137 -0.00352,-0.0096 -0.00655,-0.01965 -0.00982,-0.03049 -0.00326,-0.01084 -0.00631,-0.02207 -0.0093,-0.03411 -0.00299,-0.01204 -0.00609,-0.0251 -0.00879,-0.03824 -0.00269,-0.01314 -0.00538,-0.02666 -0.00775,-0.04082 -0.00237,-0.01417 -0.00417,-0.02882 -0.0062,-0.04392 -0.00203,-0.0151 -0.00402,-0.03056 -0.00568,-0.04651 -0.00167,-0.01595 -0.00337,-0.03239 -0.00465,-0.04909 -0.00128,-0.0167 -0.00222,-0.03379 -0.0031,-0.05116 -8.782e-4,-0.01737 -0.00162,-0.03476 -0.00207,-0.05271 -4.5e-4,-0.01795 -5.167e-4,-0.03633 -5.167e-4,-0.05478 V 8.8020467 c 0,-0.018446 6.67e-5,-0.036824 5.167e-4,-0.054777 4.501e-4,-0.017953 0.00119,-0.035339 0.00207,-0.05271 8.782e-4,-0.017371 0.00182,-0.034458 0.0031,-0.05116 0.00128,-0.016702 0.00298,-0.033148 0.00465,-0.049093 0.00167,-0.015945 0.00365,-0.031409 0.00568,-0.046509 0.00203,-0.0151 0.00383,-0.029758 0.0062,-0.043925 0.00237,-0.014167 0.00506,-0.028196 0.00775,-0.041341 0.00269,-0.013146 0.0058,-0.025687 0.00879,-0.037724 0.00299,-0.012037 0.00604,-0.023267 0.0093,-0.034107 0.00326,-0.01084 0.0063,-0.020934 0.00982,-0.030489 0.00352,-0.00956 0.0071,-0.018689 0.010852,-0.026872 0.00375,-0.00818 0.00793,-0.015499 0.011886,-0.022221 0.00396,-0.00672 0.00774,-0.012914 0.011886,-0.018087 0.00207,-0.00259 0.0046,-0.00505 0.00672,-0.00723 0.00212,-0.00218 0.00404,-0.00392 0.0062,-0.00568 0.00216,-0.00177 0.00452,-0.00331 0.00672,-0.00465 0.00219,-0.00134 0.00397,-0.00271 0.0062,-0.00362 0.00223,-9.061e-4 0.00446,-0.00161 0.00672,-0.00207 0.00226,-4.586e-4 0.00494,-5.168e-4 0.00723,-5.168e-4 h 0.2351278 v -0.587561 c 0,-0.3902167 -0.2360089,-0.7043498 -0.5291667,-0.7043498 z" />
      <rect
         style="fill:#552200;stroke-width:0.132738"
         id="rect406-6-7"
         width="0.71906394"
         height="3.9681671"
         x="2.8353338"
         y="8.2692347"
         rx="0.13229167"
         ry="0.53274208"
         inkscape:label="条中" />
      <rect
         style="fill:#803300;stroke-width:0.132738"
         id="rect406-6"
         width="0.71906394"
         height="3.9681671"
         x="1.777"
         y="8.2692347"
         rx="0.13229167"
         ry="0.53274208"
         inkscape:label="条左" />
    </g>
  </g>
</svg>
