<?xml version="1.0" encoding="UTF-8"?>
<svg width="16" height="16" version="1.1" viewBox="0 0 16 16" xml:space="preserve" xmlns="http://www.w3.org/2000/svg" xmlns:cc="http://creativecommons.org/ns#" xmlns:dc="http://purl.org/dc/elements/1.1/" xmlns:rdf="http://www.w3.org/1999/02/22-rdf-syntax-ns#" xmlns:xlink="http://www.w3.org/1999/xlink"><title>PJ568</title><defs><linearGradient id="linearGradient31697" x1="-6.232" x2="253.89" y1="224.58" y2="224.58" gradientTransform="matrix(1.0185 0 0 1 -2.7706 -.048208)" gradientUnits="userSpaceOnUse"><stop stop-color="#261816" offset="0"/><stop stop-color="#483b3a" offset=".62"/><stop stop-color="#362928" offset="1"/></linearGradient><linearGradient id="linearGradient51372" x1="120.81" x2="120.31" y1="193.81" y2="136.13" gradientTransform="matrix(1.0001 0 0 1.3006 .59896 -40.088)" gradientUnits="userSpaceOnUse"><stop stop-color="#5e5766" offset="0"/><stop stop-color="#85869b" offset="1"/></linearGradient><linearGradient id="linearGradient54613" x1="232.72" x2="194" y1="1.576" y2="162.63" gradientUnits="userSpaceOnUse"><stop stop-color="#684b4a" offset="0"/><stop stop-color="#766a68" offset=".182"/><stop stop-color="#746254" offset=".4"/><stop stop-color="#5c4739" offset=".671"/><stop stop-color="#584336" offset=".822"/><stop stop-color="#473531" offset="1"/></linearGradient><linearGradient id="linearGradient75749" x1="147.36" x2="136.49" y1="173.93" y2="111.12" gradientTransform="matrix(1.0171 0 0 1.0064 -1.8891 -.71098)" gradientUnits="userSpaceOnUse"><stop stop-color="#2a140b" offset="0"/><stop stop-color="#25141b" offset=".662"/><stop stop-color="#878697" offset=".883"/><stop stop-color="#c0c7d1" offset="1"/></linearGradient><linearGradient id="linearGradient100498" x1="139.71" x2="126.83" y1="175.14" y2="117.16" gradientUnits="userSpaceOnUse"><stop stop-color="#2a140b" offset="0"/><stop stop-color="#7e371a" offset=".477"/><stop stop-color="#a96c4a" offset=".696"/><stop stop-color="#c2aca2" offset=".899"/><stop stop-color="#cbc9c9" offset="1"/></linearGradient><linearGradient id="linearGradient100565" x1="141.55" x2="142.16" y1="180.91" y2="167.11" gradientUnits="userSpaceOnUse"><stop stop-opacity="0" offset="0"/><stop stop-opacity=".65" offset=".5"/><stop stop-opacity="0" offset="1"/></linearGradient><filter id="filter101008" x="-.09375" y="-.0625" width="1.1875" height="1.125" color-interpolation-filters="sRGB"><feGaussianBlur result="blur" stdDeviation="10 5"/><feColorMatrix result="colormatrix" values="1 0 0 0 0 0 1 0 0 0 0 0 1 0 0 0 0 0 50 0"/><feComposite in="colormatrix" in2="SourceGraphic" operator="in"/></filter><filter id="filter103860" x="-.0090591" y="-.032253" width="1.0181" height="1.0645" color-interpolation-filters="sRGB"><feGaussianBlur result="blur" stdDeviation="1"/><feComposite in="SourceGraphic" in2="blur" operator="atop" result="composite1"/><feComposite in2="composite1" operator="in" result="composite2"/><feComposite in2="composite2" operator="in" result="composite3"/></filter><filter id="filter104040" x="0" y="0" width="1" height="1" color-interpolation-filters="sRGB"><feTurbulence baseFrequency="0.013 0.013" result="turbulence" seed="1" type="fractalNoise"/><feDisplacementMap in="SourceGraphic" in2="turbulence" scale="6.4" xChannelSelector="R" yChannelSelector="G"/></filter><filter id="filter104116" x="-.026852" y="-.0075939" width="1.0537" height="1.0152" color-interpolation-filters="sRGB"><feGaussianBlur result="blur" stdDeviation=".2"/><feComposite in="SourceGraphic" in2="blur" operator="atop" result="composite1"/><feComposite in2="composite1" operator="in" result="composite2"/><feComposite in2="composite2" operator="in" result="composite3"/></filter><linearGradient id="linearGradient116464" x1="125.39" x2="119.53" y1="157.81" y2="126.95" gradientUnits="userSpaceOnUse"><stop stop-color="#582814" offset="0"/><stop stop-color="#864123" offset=".488"/><stop stop-color="#b48a73" offset="1"/></linearGradient><linearGradient id="linearGradient17507" x1="143.53" x2="134.24" y1="134.51" y2="136.24" gradientUnits="userSpaceOnUse"><stop stop-opacity="0" offset="0"/><stop stop-opacity=".3" offset=".5"/><stop stop-opacity="0" offset="1"/></linearGradient><filter id="filter17893" x="-.035057" y="-.094232" width="1.0701" height="1.1885" color-interpolation-filters="sRGB"><feGaussianBlur result="blur" stdDeviation="3.8"/><feComposite in="SourceGraphic" in2="blur" operator="atop" result="composite1"/><feComposite in2="composite1" operator="in" result="composite2"/><feComposite in2="composite2" operator="in" result="composite3"/></filter><linearGradient id="linearGradient129960" x1="199.29" x2="201.62" y1="176.77" y2="128.52" gradientUnits="userSpaceOnUse"><stop stop-color="#cdd7e3" offset="0"/><stop stop-color="#fcfcfe" offset=".572"/></linearGradient><linearGradient id="linearGradient135334" x1="218.51" x2="218.14" y1="192.56" y2="177.08" gradientUnits="userSpaceOnUse"><stop stop-color="#9596a2" offset="0"/><stop stop-color="#e7eff4" offset="1"/></linearGradient><linearGradient id="linearGradient138653" x1="206.25" x2="197.79" y1="175.69" y2="111.88" gradientUnits="userSpaceOnUse"><stop stop-color="#1b0c10" offset="0"/><stop stop-color="#2a1b1e" offset="1"/></linearGradient><linearGradient id="linearGradient150321" x1="199.48" x2="199.75" y1="166.72" y2="183.78" gradientUnits="userSpaceOnUse"><stop offset="0"/><stop stop-opacity="0" offset="1"/></linearGradient></defs><g transform="scale(.0625)"><g><rect width="256" height="192" fill="url(#linearGradient54613)" filter="url(#filter101008)"/><rect transform="matrix(1.0839 -.023043 .016194 .99989 -9.3291 0)" x="-4.429" y="122.98" width="260.15" height="96.782" rx=".489" ry="2.444" fill="url(#linearGradient51372)" filter="url(#filter17893)"/><rect transform="matrix(.99985 -.017396 .019787 .9998 0 0)" x="-9.118" y="187.32" width="264.93" height="74.412" rx=".498" ry="1.879" fill="url(#linearGradient31697)" filter="url(#filter103860)"/><text transform="translate(11.328 1.5625)" fill="url(#linearGradient116464)" font-family="'Smiley Sans'" font-size="24px" style="shape-inside:url(#rect104544);white-space:pre" xml:space="preserve"/><path d="m138.47 112.83c-5.1906 1.4223-10.207 3.7503-15.33 5.5258-39.705 14.904-79.411 29.807-119.12 44.711 0.74847 1.5942 0.28558 4.6486 1.8487 5.2607 48.638 2.0042 97.277 4.0085 145.92 6.0127-2.0898-12.542-4.1797-25.085-6.2695-37.627 1.8505-5.7056-0.79369-11.361-2.7615-16.566-0.56573-2.203-0.39983-4.7631-1.4148-6.7468-0.82084-0.60484-1.907-0.54467-2.8725-0.56959z" fill="url(#linearGradient100498)" filter="url(#filter104040)"/><path d="m143.96 155.39c0.97331 5.8268 1.9466 11.654 2.9199 17.48 1.8166-0.24603 3.7367-1.0383 4.6674-2.7119 0.77841-1.3265 0.7243-3.0761-0.15838-4.3399-0.72843-1.2052-2.0749-2.1077-2.2393-3.5989-0.1136-0.98062 0.055-2.039-0.48383-2.9263-0.65143-1.151-1.5612-2.1406-2.5157-3.047-0.59865-0.52971-1.3721-0.91755-2.1901-0.85645z" fill="#d3d2db"/><path transform="matrix(.99971 0 0 1.011 .041164 -1.5231)" d="m141.84 111.53c-2.4082 0.89453-4.8164 1.7891-7.2246 2.6836 3.487 20.074 6.974 40.148 10.461 60.223 2.4694 0.10091 4.9388 0.20183 7.4082 0.30274 0.0976-1.5172-0.93307-2.2071-2.0894-2.9768-3.1445-2.5013-3.7887-6.7333-3.5926-10.509 0.26906-6.452 1.2954-12.981-0.12047-19.38-1.0309-6.1948-3.5204-12.096-4.0506-18.376-0.27411-2.3896 0.23966-4.85-0.29193-7.1945-0.94206-1.2313-3.8202-3.7458-0.75766-4.3383 0.52061 0.16304 0.25083-0.23404 0.25816-0.43455z" fill="url(#linearGradient75749)" filter="url(#filter104116)"/><path d="m60.459 141.88c-18.792 7.054-37.585 14.108-56.377 21.162 0.17266 3.5852-1.6744 7.9869 1.9043 10.52 3.0916 3.6821 12.201 0.45494 13.056 4.4648-3.6148 5.1069-10.295 9.3286-16.119 8.2727-0.16914 3.3942-0.33828 6.7883-0.50742 10.182 49.518 1.7448 99.036 3.4896 148.55 5.2344 0.11003-4.9902 0.22005-9.9805 0.33008-14.971-3.0913-0.95538-9.42-2.29-9.9484-4.9656 4.3651-0.21194 11.162-1.3931 10.216-7.2018-0.98257-3.4331 1.8861-6.8314-0.91606-9.7395-1.4576-2.8329-1.2595-6.4257-2.0406-9.5691-0.51978-3.1187-1.0396-6.2374-1.5594-9.3561-28.865-1.3444-57.729-2.6888-86.594-4.0332zm-56.594 25.531c-5.0176 3.14-10.035 6.28-15.053 9.4199 7.7747 0.72656 15.549 1.4531 23.324 2.1797-1.337-3.8001-5.1454-4.307-7.5647-7.0109-1.1575-1.3829-0.75564-2.981-0.70678-4.5887zm147.72 7.1055c0.79943 4.4853-3.7933 7.0528-7.8008 6.9082-4.6366 1.166 0.34159 2.9388 2.6836 1.5232 4.2083-0.82153 8.4167-1.6431 12.625-2.4646-2.5026-1.9889-5.0052-3.9778-7.5078-5.9668z" fill="url(#linearGradient100565)" opacity=".8"/><path d="m138.47 112.83c-5.8445 1.6524-11.376 4.2085-17.107 6.1934v54.062c10.142 0.41792 20.284 0.83599 30.426 1.2539-2.0898-12.542-4.1797-25.085-6.2695-37.627 1.8327-5.6413-0.76682-11.356-2.7617-16.566-0.88727-2.2732 0.18376-6.0844-2.4292-7.1858-0.61016-0.13261-1.2376-0.11462-1.8579-0.13063z" fill="url(#linearGradient17507)" filter="url(#filter104040)" opacity=".65"/><path d="m155.27 166.94c0.11039 0.13221 0.19871 0.21317 0.30664 0.33594-0.10768-0.1096-0.20582-0.23106-0.32422-0.32812v0.0156c-1.2839 1.69-2.5676 3.3803-3.8516 5.0703-0.0851 0.84111-0.0799 1.6906 0.16406 2.543 0.10784 0.66215 0.10371 1.2574 0.0254 1.8047 0.0999-0.57951 0.11315-1.1983-6e-3 -1.8652 2.4304 1.9316 4.8606 3.8634 7.291 5.7949l17.18 8.3516-24.875 3.3418c-3e-3 0.1315-5e-3 0.26302-8e-3 0.39453 11.333 1.168 22.667 2.3359 34 3.5039-3.9427-3.819-7.8854-7.638-11.828-11.457h58.123l-4.459 4.082c10.816-0.17838 21.633-0.35677 32.449-0.53515-4.265-5.3737-8.53-10.747-12.795-16.121v2.5898c-0.0112-1.0024-0.0313-1.981-0.0703-2.9082-0.14387 0.0457-0.29129 0.0752-0.43554 0.11915 0.052-0.12003 0.0718-0.25942-2e-3 -0.44141l-0.10547-0.13281c-0.81566 0.41326-0.96877 0.69727-0.85742 0.84179-7.3649 2.0433-15.176 2.0257-22.766 2.5742-16.308 0.81671-32.73 0.30425-48.809-2.7305-5.1254-1.0304-10.42-1.062-15.498-2.2637-0.83779-0.25429-1.3632-0.88868-1.8887-1.5273 1.1912 1.2274 1.788 1.5165-0.27735-0.39063-0.22766-0.22052-0.45592-0.44159-0.68359-0.66211zm-3.752 9.8164c-0.0119 0.0527-0.0275 0.10267-0.041 0.1543 0.0148-0.051 0.0279-0.1025 0.041-0.1543zm-1.7988 2.7266c-0.65686 0.50728-1.4419 0.90323-2.2891 1.2168l0.3418-0.0527c0.71077-0.30447 1.3789-0.68426 1.9473-1.1641z" fill="url(#linearGradient150321)" opacity=".4"/><path d="m222.09 177.88c-1.6137-0.47663-4.0476-0.68827-5.318-0.23812s-1.3762 1.5612-2.3017 2.2486-2.6715 0.95186-4.1266 1.2693c-1.4551 0.31743-2.6191 0.68779-3.175 1.1911-0.55582 0.50329-0.50291 1.1382-0.63527 1.6404-0.13235 0.50215-0.44981 0.87252-0.34384 2.4868s0.63506 4.4714 1.3234 6.0054 1.5349 1.7456 2.2754 1.7718c0.74051 0.0262 1.3754-0.13251 1.9041-0.47628s0.95197-0.87286 1.1372-1.5602c0.18526-0.68737 0.13236-1.5339 0.39683-2.328s0.84647-1.5348 1.4291-1.8258c0.58266-0.2909 1.1647-0.13218 1.5082 0.13281 0.34349 0.26499 0.44931 0.63535 0.70371 0.92077s0.69885 0.50764 1.1216 0.45437c0.42276-0.0533 0.84604-0.37073 1.1535-0.74518 0.30746-0.37444 0.53873-0.89481 0.98885-1.2655 0.45011-0.37071 1.1379-0.63526 1.6671-0.42291 0.52916 0.21234 0.89952 0.90016 1.4024 1.4555s1.1378 0.97862 1.6399 0.97826c0.50204-3.5e-4 0.8724-0.42362 1.0312-0.92576 0.15881-0.50215 0.1059-1.0842-0.0261-1.5867-0.13202-0.50259-0.34366-0.92586-0.37051-1.2966-0.0269-0.37077 0.13187-0.68822 0.39656-1.0059 0.2647-0.31771 0.63506-0.63516 0.9789-0.979 0.34385-0.34384 0.66131-0.71421 0.39725-1.3751-0.26405-0.66089-1.1106-1.6133-1.9307-2.4599-0.82006-0.84661-1.6137-1.5873-3.2274-2.064z" fill="url(#linearGradient135334)"/><path d="m177.88 112.91c2.3287 1.0055 6.6673 3.4923 9.2596 5.7677 2.5923 2.2754 3.4388 4.3389 4.1004 5.37 0.66163 1.0312 1.1378 1.0312 4.8681 1.4016 3.7303 0.37043 10.714 1.1112 15.291 2.1432 4.5768 1.032 6.746 2.3548 8.3862 3.0688s2.7513 0.81979 6.4813-0.0798c3.73-0.89964 10.079-2.8044 13.704-3.7566 3.6245-0.95228 4.524-0.95228 4.9732-0.92533 0.44924 0.0269 0.44924 0.0799 0.34334 0.26467-0.1059 0.1848-0.31754 0.50226-1.64 1.2957s-3.7563 2.0633-6.0053 3.9947-4.3124 4.524-5.053 7.9372c-0.7406 3.4132-0.15861 7.646 0.5562 10.027 0.7148 2.3808 1.5613 2.9098 2.3546 4.18s1.534 3.2806 2.1429 4.3914 1.085 1.3224 1.4022 1.5873c0.31715 0.26489 0.47588 0.58234 0.47548 0.95239-4.1e-4 0.37005-0.15914 0.79332-0.18541 1.3756-0.0263 0.58231 0.0795 1.323 0.31817 1.7725 0.23863 0.44943 0.60899 0.60816 1.0058 0.79339 0.39683 0.18523 0.8201 0.39687 0.89876 0.76714 0.0787 0.37028-0.18588 0.89937-0.34457 1.3493-0.15869 0.44996-0.2116 0.82033 0.2123 1.0581s1.3234 0.34356 2.1169 0.7673 1.4814 1.1645 1.9045 1.6936c0.4231 0.52919 0.58183 0.84664 0.89958 1.0578 0.31774 0.21117 0.79392 0.31699-0.76718 0.79297-1.5611 0.47599-5.1589 1.3225-14.048 2.0104-8.8889 0.68791-23.069 1.217-34.55 0.60865-11.481-0.60835-20.264-2.3544-26.455-3.2804-6.1906-0.92603-9.7884-1.0318-11.746-1.5604-1.958-0.52852-2.2754-1.4809-2.7248-2.0105-0.44938-0.52959-1.0314-0.63541-0.89972-1.2704 0.13164-0.63495 0.97819-1.799 2.0741-3.5916 1.0959-1.7926 2.3961-4.1331 3.4283-5.4297s1.7729-1.5082 2.1429-2.1161c0.37004-0.60789 0.37004-1.6132 0.66162-1.9042s0.87357 0.13218 2.9897-0.47681c2.1161-0.609 5.7668-2.2492 8.3062-5.7673 2.5394-3.5181 3.9679-8.9148 3.7568-12.883s-2.063-6.5077-2.9364-9.8411c-0.87344-3.3335-0.76763-7.4604-0.55604-9.7623 0.21158-2.302 0.52903-2.7782 2.8577-1.7726z" fill="url(#linearGradient138653)"/><path d="m207.83 141.03c0.63571-0.76634 0.44864-2.0384 0.33634-3.3479-0.11231-1.3095-0.14972-2.6564 0.39321-3.3865 0.54293-0.73011 1.6653-0.84234 2.6755-0.87969 1.0102-0.0373 1.9081 7e-5 2.6558-0.31794s1.3463-0.99143 1.5336-1.6643c0.1873-0.67287-0.0372-1.3463-1.0282-1.9266-0.99107-0.58035-2.7494-1.0667-4.1712-1.3474-1.4218-0.28072-2.5067-0.35555-3.9284-0.61733s-3.18-0.71073-4.6394-0.8045c-1.4593-0.0938-2.6191 0.16812-3.7228 0.41131s-2.1512 0.46767-2.7128 1.0107c-0.56162 0.54302-0.63644 1.4035-0.71126 2.3763-0.0748 0.97275-0.14964 2.0577-0.0372 3.1802 0.11242 1.1225 0.41172 2.2823 0.46762 3.442s-0.13117 2.3194 1.3847 3.1796c1.5159 0.8602 4.7334 1.4214 7.0715 1.5709s3.7972-0.1124 4.4329-0.87874zm6.5473 13.282c1.2727-0.43045 3.5549 0.35522 5.5565 1.272s3.7226 1.9643 4.6761 3.2366c0.95352 1.2723 1.1406 2.7688 0.67311 3.7221-0.46746 0.95339-1.5898 1.3649-3.8156 0.52357-2.2258-0.84134-5.5555-2.9364-7.0901-4.8071-1.5346-1.8706-1.2727-3.5168 1e-5 -3.9472zm19.342 4.2843c-0.11256 0.33664-0.0752 1.459-0.48614 1.7395-0.41099 0.28046-1.2715-0.28073-1.5712-0.13085s-0.0378 1.0104 0.54252 1.5899c0.58033 0.57951 1.4782 0.87881 1.8903 0.4114s0.33505-1.7767 0.167-2.6372c-0.16805-0.86044-0.42993-1.3094-0.5425-0.97274zm-26.582-20.466c1.1409-1.7952 1.1035-4.0774 0.73755-5.8587s-1.0925-3.1196-2.1398-3.8871c-1.0473-0.76747-2.4316-0.99195-3.6478-0.97342-1.2161 0.0185-2.2637 0.28042-3.2555 0.87912-0.99181 0.59871-1.9271 1.534-2.4884 2.4884-0.56127 0.95443-0.74833 1.9272-0.84178 2.8813-0.0935 0.95416-0.0935 1.9643 0.8985 3.4421 0.99197 1.4778 2.9748 3.4607 5.1258 3.7968s4.4705-0.97332 5.6114-2.7686zm-28.303-21.138c1.3848 0.71133 3.7044 2.4698 5.5562 4.2844s3.2361 3.6853 3.1799 4.8258c-0.0562 1.1404-1.5527 1.552-2.2638 2.1325-0.71113 0.58055-0.63631 1.3288-1.3843 1.9642s-2.3194 1.1592-3.3482 1.0289-1.5152-0.91593-1.9831-2.3002c-0.4679-1.3843-0.91685-3.3672-1.2536-5.4624-0.3368-2.0952-0.56127-4.3025-0.449-5.5752 0.11226-1.2727 0.56121-1.6094 1.946-0.89804z" fill="#605051"/><path d="m191.74 173.13c-0.37445 0.28082-0.59893 0.61754-0.59863 1.0857 3.1e-4 0.46815 0.22478 1.0668 1.6842 1.4964 1.4595 0.4297 4.1532 0.69159 5.5181 0.63586 1.365-0.0557 1.4024-0.42985 1.4959-0.82286 0.0935-0.39301 0.24312-0.80454 0.0194-1.1413-0.22378-0.33674-0.82238-0.59862-2.0009-0.91678-1.1786-0.31815-2.9369-0.69227-4.0784-0.76732-1.1414-0.0751-1.6652 0.14942-2.0397 0.43023zm10.537-43.362c-0.0764 0.0419-0.0768 0.0421-1.0707 0.79042-0.99387 0.7483-2.7735 2.5563-4.1537 4.6111s-2.8206 5.3959-3.6013 7.1206c-0.78066 1.7246-0.95985 2.1022-1.2333 2.7019-0.27346 0.59967-0.71295 1.6036-1.2964 2.4488-0.58349 0.8452-1.7151 1.9466-2.7739 2.7832s-2.0095 1.4402-2.8058 1.7323-1.9044 0.44838-4.3883 0.91978c-2.4838 0.4714-6.4296 1.4172-9.6296 2.463s-5.8457 2.1526-7.4252 2.8085c-1.5795 0.6559-2.0219 0.83825-2.0016 0.77114 0.0204-0.0671 0.30349-1.0008 0.55599-1.439 0.25249-0.43821 0.59225-0.80614 0.62987-0.90448 0.0376-0.0983-0.0821-0.43468-0.25746-0.75521-0.17532-0.32053-0.17532-0.32053-0.19537-0.29943-0.0201 0.0211-0.0986 0.10368-0.20979 0.20977-0.11124 0.10609-0.26491 0.23887-0.43831 0.39214-0.17339 0.15328-0.36791 0.32918-0.58202 0.54446-0.21412 0.21528-0.44757 0.47631-0.70606 0.79694-0.2585 0.32062-0.53866 0.70701-0.82695 1.1328-0.28828 0.42582-0.58413 0.89467-1.0323 1.6199-0.44815 0.72526-1.0661 1.7467-1.4423 2.4274s-0.52682 0.98042-0.51987 1.1448c7e-3 0.16442 0.21764 0.40376 0.50229 0.65118 0.28464 0.24742 0.58757 0.44767 0.79012 0.48964 0.20255 0.042 0.64411-0.0432 1.1928-0.13177 0.54868-0.0886 1.2353-0.17784 1.5725-0.052 0.33722 0.12582 1.0793 1.0059 1.7188 1.97s1.2329 2.1246 1.627 2.4969 0.65106 0.47029 1.6941 0.58067c1.0431 0.11037 3.502-0.25159 4.9077-0.43374 1.4057-0.18216 1.8423-0.23108 2.5428-0.29858s1.7293-0.15056 2.3637-0.0818c0.63439 0.0688 1.4415 0.31215 1.6404 0.28135s0.86205-0.52038 0.96621-0.54469c0.10415-0.0243 0.58248 0.22784 1.1864 0.5016 0.60391 0.27375 1.4457 0.59583 2.4838 0.88807s2.2966 0.52553 3.4806 0.60763c1.184 0.0821 2.3756 0.0285 3.2038-0.0565 0.82827-0.085 1.3928-0.17552 1.5747-0.10183 0.18188 0.0737 0.63685 0.8384 0.82929 1.4123 0.19243 0.57389 0.27322 1.2383 0.47106 1.5502s0.69177 0.48767 0.64832 0.61789c-0.0435 0.13022-0.5848 0.10091-0.75713 0.15339-0.17233 0.0525-0.20558 0.13807-0.14325 0.49482 0.0623 0.35675 0.69029 1.1553 1.6361 1.6122 0.94579 0.45696 5.7034 0.51892 6.1212 0.3538 0.41781-0.16511 0.50351-1.2014 0.20008-1.4749-0.30344-0.27348-1.3463-0.48332-1.3286-0.59729s1.0935-0.10243 1.3048-0.10017c0.21135 2e-3 0.13964-0.18702-0.21221-0.8648s-0.6951-1.1918-0.62662-1.261c0.0685-0.0692 0.85878-0.68244 0.81335-0.69843-0.0454-0.016-1.2944-0.45553-1.3598-0.47856-0.0654-0.023 0.42594-0.68029 0.7118-1.0314 0.28587-0.3511 0.49983-0.59261 0.83825-0.74496s2.0592-0.12471 2.4609 0.0165c0.40166 0.14116 0.47463 0.19509 0.52274 0.22464 0.0481 0.0296 0.15096 0.0796 0.84724 0.27637 0.69627 0.19674 2.2881 0.34332 4.2234 0.38495 1.9353 0.0416 4.2788-0.0724 5.4884-0.18476 1.2095-0.11236 1.2981-0.12454 1.6882-0.22361 0.39008-0.0991 1.2863-0.43491 1.8103-0.46145 0.52397-0.0265 1.5822 0.24981 2.4961 0.43547 0.91394 0.18566 1.8905 0.3284 2.5985 0.42026 0.70807 0.0919 1.2142 0.14922 1.6529 0.12946 0.43873-0.0198 1.17-0.1686 2.2261-0.28624 1.056-0.11763 2.8053-0.1541 3.8632-0.38018 1.0579-0.22608 1.8271-0.55705 1.9901-0.83784 0.16297-0.28079 0.10998-1.2087-0.0197-1.3314-0.12972-0.12272-0.92112-0.1622-1.4189-0.13363-0.4978 0.0286-0.86643 0.088-1.3547-0.0288-0.4883-0.11686-1.836-1.2247-2.5127-2.2715-0.67669-1.0468-1.1454-2.7647-1.3866-3.8398-0.24116-1.0751-0.35075-1.6922-0.61248-1.9494s-2.5828-1.1135-4.4807-2.0498c-1.8979-0.93632-3.5853-2.0045-4.7616-3.0075-1.1764-1.003-2.1687-2.12-2.9494-2.6806s-1.8041-0.9859-2.4254-1.1184c-0.62129-0.13248-1.0352-0.14818-1.2752-0.26852-0.24008-0.12034-0.55094-1.1571-0.57635-2.6321-0.0254-1.4751 0.85846-4.9716 0.87102-6.1072 0.0126-1.1356-0.10805-1.6568-0.29548-2.2466-0.18743-0.58976-0.51949-1.4058-0.97869-2.4888-0.45919-1.083-1.1009-2.5373-1.4084-3.54-0.30742-1.0027-0.49435-2.0264-0.6943-2.3349-0.19994-0.30848-0.97937-0.77389-1.5564-0.97531-0.57704-0.20143-0.96954-0.25658-1.0574-0.26894-0.0879-0.0123-0.088-0.0123-0.16439 0.0296zm16.018 15.076c0.0293 0.17697 0.0911 0.5502 0.1096 0.89217s-0.0139 0.64223 0.24204 0.75502c0.25593 0.11278 0.79328 0.0504 1.2912-0.23776 0.49792-0.28813 0.83574-0.60397 0.63019-0.68449-0.20554-0.0805-1.2393-0.48548-1.7708-0.69369-0.5315-0.20821-0.53155-0.20821-0.50226-0.0312zm15.146 5.4012s7e-3 0.10495 0.0173 0.24584c0.01 0.14088 0.0119 0.14088 0.0669 0.41972 0.0549 0.27884 0.2949 1.4969 0.77081 3.4868s1.2311 4.6655 1.9342 6.4773c0.7031 1.8118 1.4484 3.3004 1.8788 4.7139 0.43048 1.4134 0.72882 3.7628 1.0438 4.7604 0.31501 0.99762 0.43313 1.2182 0.64292 1.2709 0.20979 0.0527 1.0525-0.21287 1.3995-0.47661 0.34699-0.26374 0.78695-0.89963 1.088-1.2162 0.30108-0.3166 0.81549-0.71208 0.89625-0.84159 0.0808-0.1295 4e-3 -0.34293-0.2815-0.65282-0.28536-0.30989-0.99991-0.70459-1.1848-0.92423-0.18489-0.21963-0.28405-0.55692-0.32658-0.96803-0.0425-0.4111-3e-3 -0.97903-0.0752-1.1968-0.0725-0.21779-0.37799-0.5551-0.66465-0.86241-0.28666-0.3073-0.55288-0.58444-0.74775-0.94644-0.19488-0.36199-0.35462-1.0914-0.41461-1.6471-0.06-0.55568-0.0606-0.99426-0.12584-1.3063-0.0652-0.31207-0.20802-0.6355-0.3989-0.96976s-0.46501-0.71804-1.1214-1.7633c-0.65635-1.0453-1.6781-2.9114-2.3722-4.1458-0.69414-1.2344-1.128-1.986-1.4969-2.5993-0.36886-0.61325-0.49899-0.813-0.51366-0.8355-0.0147-0.0225-0.0146-0.0225-0.0146-0.0225zm-77.204 14.234c-3e-3 3e-3 -0.0232 0.026-0.0729 0.0972-0.0497 0.0711-0.2214 0.3505-0.35968 0.58848-0.13828 0.23799-0.28314 0.50214-0.39121 0.7294-0.10808 0.22727-0.18538 0.41739-0.21541 0.53059-0.03 0.1132-0.0395 0.18482-0.035 0.2453 5e-3 0.0605 0.0213 0.11854 0.0574 0.19018 0.036 0.0717 0.10554 0.16367 0.18867 0.2544 0.0831 0.0907 0.18546 0.18322 0.29341 0.28556s0.22051 0.21425 0.33486 0.34226 0.23371 0.27868 0.36758 0.44207c0.13386 0.1634 0.28412 0.34077 0.4025 0.40992 0.11838 0.0692 0.19642 0.0718 0.41756-0.0446 0.22113-0.1164 0.6715-0.71249 0.67524-0.97151 4e-3 -0.25902-0.59871-1.3468-0.95511-1.9535-0.35639-0.60671-0.5632-0.93921-0.62053-1.0259-0.0573-0.0867-0.0773-0.11346-0.0809-0.11828-4e-3 -5e-3 -3e-3 -5e-3 -6e-3 -2e-3z" fill="url(#linearGradient129960)"/><path d="m195.35 163.75c0.40654 0.50515 0.90966 0.92376 1.3968 1.3502 0.48689 0.36236 1.0493 0.60019 1.5625 0.92026 0.76806 0.42457 1.5051 0.91586 2.3113 1.2646 0.60268 0.21627 1.1886-0.53671 0.86251-1.074-0.26962-0.40803-0.79719-0.50235-1.1796-0.77419-0.67778-0.38385-1.3501-0.78165-2.0273-1.1622-0.61432-0.26156-1.0576-0.77374-1.5428-1.2108-0.17662-0.28569-0.70225-0.83665-1.1856-0.56619-0.49647 0.20624-0.60993 0.90058-0.19776 1.2524zm-0.74065-4.1173c0.21461 0.93761-0.0394 1.9248 0.26484 2.8478 0.0797 0.21871 0.0152 0.57727 0.12021 0.14801 0.10665-0.20008-0.61672 0.22614-0.87429 0.26111-0.72929 0.27192-1.4944 0.43507-2.2084 0.74734-0.53122 0.21658-1.0908 0.38507-1.5881 0.6713-0.51648 0.3641-0.24919 1.2759 0.37446 1.3206 0.53218-2e-3 0.98956-0.3461 1.4901-0.49386 0.56697-0.23313 1.1448-0.42949 1.7352-0.59406 0.7283-0.27478 1.5214-0.44022 2.1605-0.90223 0.46101-0.40154 0.37227-1.0642 0.232-1.5904-0.21152-0.6846-0.035-1.4145-0.14755-2.1161-0.0515-0.49637-0.10634-1.1746-0.67379-1.3464-0.54547-0.17453-1.1315 0.41009-0.91707 0.95586l0.0318 0.091z" fill="#1b0c10"/><path d="m193.03 152.74c0.72956 0.31801 1.5526 1.1785 2.6937 1.4591 1.1411 0.28059 2.6002-0.0187 3.5542 0.11223 0.95403 0.13094 1.403 0.69214 1.4965 1.403 0.0935 0.71085-0.16837 1.5714-0.89792 1.8332s-1.9268-0.0748-2.357 0.22448c-0.43025 0.2993-0.0935 1.2346-0.44896 1.9268-0.35543 0.69214-1.403 1.1411-2.357 0.76697-0.95403-0.37413-1.8145-1.5714-1.7958-2.3383 0.0187-0.76697 0.91662-1.1037 0.71084-1.6275-0.20577-0.52379-1.5152-1.2346-2.1325-1.8706-0.61731-0.63602-0.54249-1.1972-0.18706-1.5901 0.35543-0.39284 0.99145-0.61731 1.721-0.2993z" fill="#1b1117"/></g><path d="m187.05 139.76c-1.5972-0.0467-3.4012 0.46533-4.1903 1.9833-2.1321 3.939 4.2493 7.8967 7.4326 5.061 1.2119-0.79153 2.3412-2.2989 1.2675-3.5889-0.68919-1.5513-1.7807-3.232-3.6451-3.3834-0.28599-0.0448-0.57525-0.0676-0.86462-0.072zm28.584 3.1445c-1.9324-0.0349-3.8968 0.95969-4.7093 2.7726-0.42908 1.2829-2.0194 2.8563-0.47082 3.9666 3.1668 3.7327 10.106 0.11806 8.4335-4.6497-0.18327-1.67-1.8896-2.1183-3.2534-2.0895z" fill="#88837c"/><path d="m183.05 141.45c-2.4093 3.1223 2.4635 7.5322 5.7647 6.0535l1.3144-0.5969 1.0811-0.93705c-3.2685 2.9648-9.1723-0.0461-8.1602-4.5195zm26.891 6.3984c-0.90023 1.5435 1.6847 2.7482 2.8044 3.1567 1.6021 0.45425 3.4111 0.0505 4.6663-1.0415-2.4711 1.7944-6.3326 0.74003-7.4707-2.1152z" fill="#bdb8b4"/><path d="m187.41 139.78c-1.3199 0.79986-2.6148 2.43-1.9028 4.0375 0.32937 1.052 1.5676 1.9917 2.5012 0.94783 1.358-1.0184 1.6613-2.975 1.2121-4.5283-0.56095-0.28301-1.1875-0.41227-1.8105-0.45703zm27.576 3.1641c-0.95446 0.18693-2.2831 0.30313-2.6698 1.3421-0.64273 1.2946-0.90589 3.2371 0.47358 4.1607 1.1747 0.75677 2.5125-0.43329 2.858-1.5508 0.45237-1.3083 0.0929-2.8332-0.66186-3.952z"/><path d="m187.81 141.07c-0.789 0.31851 0.26367 1.5537 0.27343 0.48438-5e-3 -0.17791-0.0547-0.45655-0.27343-0.48438zm-0.75782 0.74414c-0.78552 0.21506 0.20515 1.4997 0.28907 0.43555 4e-4 -0.17488-0.0801-0.42376-0.28907-0.43555zm27.555 1.8438c-1.0274 0.40097 0.5028 1.3288 0.32696 0.28612-0.0368-0.1484-0.16509-0.28731-0.32696-0.28612zm-0.87304 0.81446c-0.94012 0.997 0.94913 0.7322 0 0z" fill="#c7bebf"/></g><metadata><rdf:RDF><cc:Work rdf:about=""><dc:title>PJ568</dc:title></cc:Work></rdf:RDF></metadata></svg>
